<svg width="832" height="992" xmlns="http://www.w3.org/2000/svg" xmlns:xlink="http://www.w3.org/1999/xlink" xml:space="preserve" overflow="hidden"><defs><clipPath id="clip0"><rect x="1217" y="527" width="68" height="26"/></clipPath><clipPath id="clip1"><rect x="1217" y="527" width="68" height="26"/></clipPath><clipPath id="clip2"><rect x="1217" y="527" width="68" height="26"/></clipPath><clipPath id="clip3"><rect x="1598" y="527" width="68" height="26"/></clipPath><clipPath id="clip4"><rect x="1598" y="527" width="68" height="26"/></clipPath><clipPath id="clip5"><rect x="1598" y="527" width="68" height="26"/></clipPath><clipPath id="clip6"><rect x="1789" y="527" width="68" height="26"/></clipPath><clipPath id="clip7"><rect x="1789" y="527" width="68" height="26"/></clipPath><clipPath id="clip8"><rect x="1789" y="527" width="68" height="26"/></clipPath><clipPath id="clip9"><rect x="1026" y="527" width="68" height="26"/></clipPath><clipPath id="clip10"><rect x="1026" y="527" width="68" height="26"/></clipPath><clipPath id="clip11"><rect x="1026" y="527" width="68" height="26"/></clipPath></defs><g transform="translate(-1026 -44)"><g><g><g><g><path d="M0 0 0 27 27.9508 27 55 0 0 0Z" fill="#F68B00" fill-rule="nonzero" fill-opacity="1" transform="matrix(1.23636 0 0 1 1217 44)"/></g></g></g><g><g><g><path d="M0 0 0 27 27.9508 27 55 0 0 0Z" fill="#F68B00" fill-rule="nonzero" fill-opacity="1" transform="matrix(1.25455 0 0 1 1407 44)"/></g></g></g><g><g><g><path d="M0 0 0 27 27.9508 27 55 0 0 0Z" fill="#F68B00" fill-rule="nonzero" fill-opacity="1" transform="matrix(1.23636 0 0 1 1598 44)"/></g></g></g><g><g><g><path d="M0 0 0 27 27.9508 27 55 0 0 0Z" fill="#F68B00" fill-rule="nonzero" fill-opacity="1" transform="matrix(1.23636 0 0 1 1789 44)"/></g></g></g><g><g><g><path d="M0 0 0 27 27.9508 27 55 0 0 0Z" fill="#F68B00" fill-rule="nonzero" fill-opacity="1" transform="matrix(1.23636 0 0 1 1217 165)"/></g></g></g><g><g><g><path d="M0 0 0 27 27.9508 27 55 0 0 0Z" fill="#F68B00" fill-rule="nonzero" fill-opacity="1" transform="matrix(1.25455 0 0 1 1407 165)"/></g></g></g><g><g><g><path d="M0 0 0 27 27.9508 27 55 0 0 0Z" fill="#F68B00" fill-rule="nonzero" fill-opacity="1" transform="matrix(1.23636 0 0 1 1598 165)"/></g></g></g><g><g><g><path d="M0 0 0 27 27.9508 27 55 0 0 0Z" fill="#F68B00" fill-rule="nonzero" fill-opacity="1" transform="matrix(1.23636 0 0 1 1789 165)"/></g></g></g><g><g><g><path d="M0 0 0 27 27.9508 27 55 0 0 0Z" fill="#F68B00" fill-rule="nonzero" fill-opacity="1" transform="matrix(1.23636 0 0 1 1217 285)"/></g></g></g><g><g><g><path d="M0 0 0 27 27.9508 27 55 0 0 0Z" fill="#F68B00" fill-rule="nonzero" fill-opacity="1" transform="matrix(1.25455 0 0 1 1407 285)"/></g></g></g><g><g><g><path d="M0 0 0 27 27.9508 27 55 0 0 0Z" fill="#F68B00" fill-rule="nonzero" fill-opacity="1" transform="matrix(1.23636 0 0 1 1598 285)"/></g></g></g><g><g><g><path d="M0 0 0 27 27.9508 27 55 0 0 0Z" fill="#F68B00" fill-rule="nonzero" fill-opacity="1" transform="matrix(1.23636 0 0 1 1789 285)"/></g></g></g><g><g><g><path d="M0 0 0 27 27.9508 27 55 0 0 0Z" fill="#F68B00" fill-rule="nonzero" fill-opacity="1" transform="matrix(1.23636 0 0 1 1217 406)"/></g></g></g><g><g><g><path d="M0 0 0 27 27.9508 27 55 0 0 0Z" fill="#F68B00" fill-rule="nonzero" fill-opacity="1" transform="matrix(1.25455 0 0 1 1407 406)"/></g></g></g><g><g><g><path d="M0 0 0 27 27.9508 27 55 0 0 0Z" fill="#F68B00" fill-rule="nonzero" fill-opacity="1" transform="matrix(1.23636 0 0 1 1598 406)"/></g></g></g><g><g><g><path d="M0 0 0 27 27.9508 27 55 0 0 0Z" fill="#F68B00" fill-rule="nonzero" fill-opacity="1" transform="matrix(1.23636 0 0 1 1789 406)"/></g></g></g><g clip-path="url(#clip0)"><g clip-path="url(#clip1)"><g clip-path="url(#clip2)"><path d="M0 0 0 26 26.9156 26 52.963 0 0 0Z" fill="#F68B00" fill-rule="nonzero" fill-opacity="1" transform="matrix(1.28392 0 0 1 1217 527)"/></g></g></g><g><g><g><path d="M0 0 0 26 26.9156 26 52.963 0 0 0Z" fill="#F68B00" fill-rule="nonzero" fill-opacity="1" transform="matrix(1.3028 0 0 1 1407 527)"/></g></g></g><g clip-path="url(#clip3)"><g clip-path="url(#clip4)"><g clip-path="url(#clip5)"><path d="M0 0 0 26 26.9156 26 52.963 0 0 0Z" fill="#F68B00" fill-rule="nonzero" fill-opacity="1" transform="matrix(1.28392 0 0 1 1598 527)"/></g></g></g><g clip-path="url(#clip6)"><g clip-path="url(#clip7)"><g clip-path="url(#clip8)"><path d="M0 0 0 26 26.9156 26 52.963 0 0 0Z" fill="#F68B00" fill-rule="nonzero" fill-opacity="1" transform="matrix(1.28392 0 0 1 1789 527)"/></g></g></g><g><g><g><path d="M0 0 0 27 27.9508 27 55 0 0 0Z" fill="#F68B00" fill-rule="nonzero" fill-opacity="1" transform="matrix(1.23636 0 0 1 1217 647)"/></g></g></g><g><g><g><path d="M0 0 0 27 27.9508 27 55 0 0 0Z" fill="#F68B00" fill-rule="nonzero" fill-opacity="1" transform="matrix(1.25455 0 0 1 1407 647)"/></g></g></g><g><g><g><path d="M0 0 0 27 27.9508 27 55 0 0 0Z" fill="#F68B00" fill-rule="nonzero" fill-opacity="1" transform="matrix(1.23636 0 0 1 1598 647)"/></g></g></g><g><g><g><path d="M0 0 0 27 27.9508 27 55 0 0 0Z" fill="#F68B00" fill-rule="nonzero" fill-opacity="1" transform="matrix(1.23636 0 0 1 1789 647)"/></g></g></g><g><g><g><path d="M0 0 0 27 27.9508 27 55 0 0 0Z" fill="#F68B00" fill-rule="nonzero" fill-opacity="1" transform="matrix(1.23636 0 0 1 1217 768)"/></g></g></g><g><g><g><path d="M0 0 0 27 27.9508 27 55 0 0 0Z" fill="#F68B00" fill-rule="nonzero" fill-opacity="1" transform="matrix(1.25455 0 0 1 1407 768)"/></g></g></g><g><g><g><path d="M0 0 0 27 27.9508 27 55 0 0 0Z" fill="#F68B00" fill-rule="nonzero" fill-opacity="1" transform="matrix(1.23636 0 0 1 1598 768)"/></g></g></g><g><g><g><path d="M0 0 0 27 27.9508 27 55 0 0 0Z" fill="#F68B00" fill-rule="nonzero" fill-opacity="1" transform="matrix(1.23636 0 0 1 1789 768)"/></g></g></g><g><g><g><path d="M0 0 0 27 27.9508 27 55 0 0 0Z" fill="#F68B00" fill-rule="nonzero" fill-opacity="1" transform="matrix(1.23636 0 0 1 1217 888)"/></g></g></g><g><g><g><path d="M0 0 0 27 27.9508 27 55 0 0 0Z" fill="#F68B00" fill-rule="nonzero" fill-opacity="1" transform="matrix(1.25455 0 0 1 1407 888)"/></g></g></g><g><g><g><path d="M0 0 0 27 27.9508 27 55 0 0 0Z" fill="#F68B00" fill-rule="nonzero" fill-opacity="1" transform="matrix(1.23636 0 0 1 1598 888)"/></g></g></g><g><g><g><path d="M0 0 0 27 27.9508 27 55 0 0 0Z" fill="#F68B00" fill-rule="nonzero" fill-opacity="1" transform="matrix(1.23636 0 0 1 1789 888)"/></g></g></g><g><g><g><path d="M0 0 0 27 27.9508 27 55 0 0 0Z" fill="#F68B00" fill-rule="nonzero" fill-opacity="1" transform="matrix(1.23636 0 0 1 1217 1009)"/></g></g></g><g><g><g><path d="M0 0 0 27 27.9508 27 55 0 0 0Z" fill="#F68B00" fill-rule="nonzero" fill-opacity="1" transform="matrix(1.25455 0 0 1 1407 1009)"/></g></g></g><g><g><g><path d="M0 0 0 27 27.9508 27 55 0 0 0Z" fill="#F68B00" fill-rule="nonzero" fill-opacity="1" transform="matrix(1.23636 0 0 1 1598 1009)"/></g></g></g><g><g><g><path d="M0 0 0 27 27.9508 27 55 0 0 0Z" fill="#F68B00" fill-rule="nonzero" fill-opacity="1" transform="matrix(1.23636 0 0 1 1789 1009)"/></g></g></g><g><g><g><path d="M0 0 0 27 27.9508 27 55 0 0 0Z" fill="#F68B00" fill-rule="nonzero" fill-opacity="1" transform="matrix(1.23636 0 0 1 1026 44)"/></g></g></g><g><g><g><path d="M0 0 0 27 27.9508 27 55 0 0 0Z" fill="#F68B00" fill-rule="nonzero" fill-opacity="1" transform="matrix(1.23636 0 0 1 1026 165)"/></g></g></g><g><g><g><path d="M0 0 0 27 27.9508 27 55 0 0 0Z" fill="#F68B00" fill-rule="nonzero" fill-opacity="1" transform="matrix(1.23636 0 0 1 1026 285)"/></g></g></g><g><g><g><path d="M0 0 0 27 27.9508 27 55 0 0 0Z" fill="#F68B00" fill-rule="nonzero" fill-opacity="1" transform="matrix(1.23636 0 0 1 1026 406)"/></g></g></g><g clip-path="url(#clip9)"><g clip-path="url(#clip10)"><g clip-path="url(#clip11)"><path d="M0 0 0 26 26.9156 26 52.963 0 0 0Z" fill="#F68B00" fill-rule="nonzero" fill-opacity="1" transform="matrix(1.28392 0 0 1 1026 527)"/></g></g></g><g><g><g><path d="M0 0 0 27 27.9508 27 55 0 0 0Z" fill="#F68B00" fill-rule="nonzero" fill-opacity="1" transform="matrix(1.23636 0 0 1 1026 647)"/></g></g></g><g><g><g><path d="M0 0 0 27 27.9508 27 55 0 0 0Z" fill="#F68B00" fill-rule="nonzero" fill-opacity="1" transform="matrix(1.23636 0 0 1 1026 768)"/></g></g></g><g><g><g><path d="M0 0 0 27 27.9508 27 55 0 0 0Z" fill="#F68B00" fill-rule="nonzero" fill-opacity="1" transform="matrix(1.23636 0 0 1 1026 888)"/></g></g></g><g><g><g><path d="M0 0 0 27 27.9508 27 55 0 0 0Z" fill="#F68B00" fill-rule="nonzero" fill-opacity="1" transform="matrix(1.23636 0 0 1 1026 1009)"/></g></g></g></g></g></svg>